<svg xmlns="http://www.w3.org/2000/svg" xmlns:xlink="http://www.w3.org/1999/xlink" fill="none" version="1.1" width="48" height="48" viewBox="0 0 48 48"><defs><clipPath id="master_svg0_245_3204"><rect x="0" y="0" width="48" height="48" rx="0"/></clipPath></defs><g clip-path="url(#master_svg0_245_3204)"><g><g transform="matrix(0.08571431040763855,0,0,0.08571378886699677,0.7116306657688654,0.7117295999423163)"><g><path d="M235.50426793670653,61.6977189024043C230.61456793670655,61.676091339404294,225.92686793670654,62.7451491394043,221.77966793670655,65.15068913940429L239.22026793670653,115.6652991394043L197.56616793670656,135.8770991394043L173.35266793670655,84.85639913940429C147.68246793670653,92.7144991394043,147.67796793670655,130.88859913940428,155.91176793670655,146.4443991394043C165.92146793670653,172.9053991394043,181.74506793670653,171.4683991394043,200.47296793670654,172.43139913940428C215.00326793670655,174.3553991394043,220.82216793670653,182.5383991394043,226.63436793670655,186.8683991394043L238.26126793670653,227.2613991394043Q136.54168793670655,433.1813991394043,131.69826793670654,439.9173991394043L195.61826793670656,438.9643991394043L263.43426793670653,291.73739913940426L308.9542679367065,378.8353991394043C309.76126793670653,389.7403991394043,305.2592679367066,398.7183991394043,301.22226793670654,405.7743991394043C289.76026793670655,411.7083991394043,288.46226793670655,431.5983991394043,298.7952679367065,440.8993991394043C315.42426793670654,465.27539913940427,338.33326793670653,474.7343991394043,369.00826793670655,467.8383991394043C395.97026793670653,456.6123991394043,416.63626793670653,434.8043991394043,410.6632679367065,399.5233991394043C404.04326793670657,379.1563991394043,396.9392679367065,378.9803991394043,371.9152679367065,377.37639913940427C361.0982679367065,376.4143991394043,357.07626793670653,373.0433991394043,349.64926793670656,365.8273991394043L267.3002679367065,170.4963991394043C267.78426793670656,156.38359913940428,270.20826793670653,147.5743991394043,276.02026793670655,136.8295991394043C283.44726793670657,129.7733991394043,293.77226793670656,119.3347991394043,285.6992679367065,99.7696991394043C281.89526793670655,82.0488991394043,256.6942679367065,61.7913512394043,235.50426793670653,61.6977189024043ZM334.1562679367065,390.8613991394043L371.43626793670654,392.2903991394043L388.87626793670654,418.7533991394043L372.42426793670654,448.5793991394043L334.63626793670653,447.6273991394043L313.80926793670653,421.1643991394043L334.1562679367065,390.8613991394043Z" fill-rule="evenodd" fill="#fff" fill-opacity="1"/></g><g transform="matrix(0.9817181825637817,0,0,1.0093493461608887,0.014229580602318492,-0.007278034297996783)"><path d="M276.74234606170654,537.5984538269043C429.15334606170654,537.5984538269043,552.7073460617065,417.4264538269043,552.7073460617065,269.1884538269043C552.7073460617065,120.9494538269043,429.15334606170654,0.7784538269042969,276.74234606170654,0.7784538269042969C124.33134606170654,0.7784538269042969,0.778353691096543,120.9494538269043,0.778346061706543,269.1884538269043C0.778353691096543,417.4264538269043,124.33134606170654,537.5984538269043,276.74234606170654,537.5984538269043ZM513.8293460617066,222.0944538269043Q518.7073460617065,245.2804538269043,518.7073460617065,269.1884538269043Q518.7073460617065,293.0954538269043,513.8283460617065,316.2824538269043Q509.0773460617065,338.8674538269043,499.84134606170653,360.10645382690427Q490.7573460617065,380.9954538269043,477.65234606170657,399.8624538269043Q464.6443460617065,418.5894538269043,448.1733460617065,434.6094538269043Q431.6783460617065,450.6534538269043,412.36634606170657,463.3434538269043Q392.85534606170654,476.1634538269043,371.22534606170655,485.0614538269043Q349.1833460617065,494.1294538269043,325.72234606170656,498.7984538269043Q301.60934606170656,503.5984538269043,276.74234606170654,503.5984538269043Q251.87534606170655,503.5984538269043,227.76334606170656,498.7984538269043Q204.30234606170654,494.1294538269043,182.26034606170654,485.0614538269043Q160.63034606170655,476.1634538269043,141.11934606170655,463.3434538269043Q121.80734606170654,450.6534538269043,105.31234606170655,434.6094538269043Q88.84144606170655,418.5894538269043,75.83324606170655,399.8624538269043Q62.72844606170654,380.9954538269043,53.64434606170654,360.10645382690427Q44.408346061706546,338.8674538269043,39.65654606170654,316.2824538269043Q34.77834606170654,293.0954538269043,34.77834606170654,269.1884538269043Q34.77834606170654,245.28145382690428,39.65654606170654,222.0944538269043Q44.408346061706546,199.5084538269043,53.64434606170654,178.2704538269043Q62.72844606170654,157.3804538269043,75.83324606170655,138.5144538269043Q88.84154606170654,119.78645382690429,105.31234606170655,103.7664538269043Q121.80734606170654,87.72305382690429,141.11934606170655,75.0332538269043Q160.63034606170655,62.2130538269043,182.26034606170654,53.3146538269043Q204.30234606170654,44.246953826904296,227.76334606170656,39.5775538269043Q251.87534606170655,34.7784538269043,276.74234606170654,34.7784538269043Q301.60934606170656,34.7784538269043,325.72234606170656,39.5775538269043Q349.1833460617065,44.2468538269043,371.22534606170655,53.3146538269043Q392.85534606170654,62.2130538269043,412.36634606170657,75.0332538269043Q431.6783460617065,87.72305382690429,448.1733460617065,103.7664538269043Q464.6443460617065,119.78645382690429,477.65234606170657,138.5144538269043Q490.7573460617065,157.3804538269043,499.84134606170653,178.2704538269043Q509.0773460617065,199.5084538269043,513.8293460617066,222.0944538269043Z" fill-rule="evenodd" fill="#fff" fill-opacity="1"/></g></g></g></g></svg>