<svg xmlns="http://www.w3.org/2000/svg" xmlns:xlink="http://www.w3.org/1999/xlink" fill="none" version="1.1" width="48" height="48" viewBox="0 0 48 48"><defs><clipPath id="master_svg0_245_3204"><rect x="0" y="0" width="48" height="48" rx="0"/></clipPath></defs><g clip-path="url(#master_svg0_245_3204)"><g><g transform="matrix(0.08571431040763855,0,0,0.08571378886699677,0.7116306657688654,0.7117295999423163)"><g><path d="M233.9546537399292,57.35853195154492C228.8556537399292,57.33582685854492,223.9668537399292,58.45814625854492,219.6421537399292,60.98353625854492L237.8296537399292,114.01479625854492L194.3921537399292,135.2334962585449L169.1421537399292,81.67099625854492C142.3731537399292,89.92059625854492,142.3683537399292,129.99649625854494,150.9546537399292,146.32729625854492C161.3928537399292,174.1061962585449,177.8937537399292,172.59819625854493,197.4234537399292,173.60819625854492C212.57565373992918,175.62919625854494,218.6437537399292,184.2191962585449,224.7046537399292,188.76519625854493L236.8296537399292,231.1711962585449Q130.7554037399292,447.35019625854494,125.7046537399292,454.4211962585449L192.3608537399292,453.4211962585449L263.0796537399292,298.8581962585449L310.5486537399292,390.2961962585449C311.39065373992923,401.74419625854495,306.6946537399292,411.1691962585449,302.4856537399292,418.5771962585449C290.5326537399292,424.8061962585449,289.1796537399292,445.68719625854493,299.9546537399292,455.4521962585449C317.2956537399292,481.0431962585449,341.1856537399292,490.97319625854493,373.1736537399292,483.7331962585449C401.2896537399292,471.9481962585449,422.8396537399292,449.0531962585449,416.6106537399292,412.0151962585449C409.7086537399292,390.6331962585449,402.3006537399292,390.4481962585449,376.2046537399292,388.7651962585449C364.9246537399292,387.75419625854494,360.7306537399292,384.2161962585449,352.9856537399292,376.6401962585449L267.1106537399292,171.57719625854492C267.6156537399292,156.76169625854493,270.14365373992916,147.5135962585449,276.2046537399292,136.2334962585449C283.9496537399292,128.82569625854492,294.7166537399292,117.86709625854492,286.2986537399292,97.32729625854492C282.3316537399292,78.72359625854492,256.0516537399292,57.45682905854492,233.9546537399292,57.35853195154492ZM336.8296537399292,402.9211962585449L375.7046537399292,404.4211962585449L393.8926537399292,432.2021962585449L376.7356537399292,463.5151962585449L337.3296537399292,462.5151962585449L315.6106537399292,434.7331962585449L336.8296537399292,402.9211962585449Z" fill-rule="evenodd" fill="#fff" fill-opacity="1"/></g></g></g></g></svg>